<mxfile host="app.diagrams.net" modified="2022-03-06T17:52:07.849Z" agent="5.0 (Macintosh; Intel Mac OS X 10_15_7) AppleWebKit/605.1.15 (KHTML, like Gecko) Version/15.3 Safari/605.1.15" etag="tft0wr06EGLvpBHQbmRn" version="16.6.4" type="github">
  <diagram id="C5RBs43oDa-KdzZeNtuy" name="Page-1">
    <mxGraphModel dx="275" dy="203" grid="1" gridSize="10" guides="1" tooltips="1" connect="1" arrows="1" fold="1" page="1" pageScale="1" pageWidth="1654" pageHeight="1169" math="0" shadow="0">
      <root>
        <mxCell id="WIyWlLk6GJQsqaUBKTNV-0" />
        <mxCell id="WIyWlLk6GJQsqaUBKTNV-1" parent="WIyWlLk6GJQsqaUBKTNV-0" />
        <mxCell id="WIyWlLk6GJQsqaUBKTNV-2" value="" style="rounded=0;html=1;jettySize=auto;orthogonalLoop=1;fontSize=11;endArrow=block;endFill=0;endSize=8;strokeWidth=1;shadow=0;labelBackgroundColor=none;edgeStyle=orthogonalEdgeStyle;" parent="WIyWlLk6GJQsqaUBKTNV-1" source="WIyWlLk6GJQsqaUBKTNV-3" target="WIyWlLk6GJQsqaUBKTNV-6" edge="1">
          <mxGeometry relative="1" as="geometry" />
        </mxCell>
        <mxCell id="WIyWlLk6GJQsqaUBKTNV-3" value="Select Date&amp;nbsp;" style="rounded=1;whiteSpace=wrap;html=1;fontSize=12;glass=0;strokeWidth=1;shadow=0;" parent="WIyWlLk6GJQsqaUBKTNV-1" vertex="1">
          <mxGeometry x="220" y="160" width="120" height="40" as="geometry" />
        </mxCell>
        <mxCell id="WIyWlLk6GJQsqaUBKTNV-6" value="list of available showings for data and time" style="rhombus;whiteSpace=wrap;html=1;shadow=0;fontFamily=Helvetica;fontSize=12;align=center;strokeWidth=1;spacing=6;spacingTop=-4;" parent="WIyWlLk6GJQsqaUBKTNV-1" vertex="1">
          <mxGeometry x="235" y="230" width="90" height="100" as="geometry" />
        </mxCell>
        <mxCell id="WIyWlLk6GJQsqaUBKTNV-8" value="" style="rounded=0;html=1;jettySize=auto;orthogonalLoop=1;fontSize=11;endArrow=block;endFill=0;endSize=8;strokeWidth=1;shadow=0;labelBackgroundColor=none;edgeStyle=orthogonalEdgeStyle;" parent="WIyWlLk6GJQsqaUBKTNV-1" source="WIyWlLk6GJQsqaUBKTNV-10" target="WIyWlLk6GJQsqaUBKTNV-11" edge="1">
          <mxGeometry x="0.3333" y="20" relative="1" as="geometry">
            <mxPoint as="offset" />
          </mxGeometry>
        </mxCell>
        <mxCell id="WIyWlLk6GJQsqaUBKTNV-10" value="Showing Details&amp;nbsp;Provide" style="rhombus;whiteSpace=wrap;html=1;shadow=0;fontFamily=Helvetica;fontSize=12;align=center;strokeWidth=1;spacing=6;spacingTop=-4;" parent="WIyWlLk6GJQsqaUBKTNV-1" vertex="1">
          <mxGeometry x="230" y="390" width="100" height="80" as="geometry" />
        </mxCell>
        <mxCell id="rZJ9U5A9wIgJqq0RdlXc-8" style="edgeStyle=orthogonalEdgeStyle;rounded=0;orthogonalLoop=1;jettySize=auto;html=1;entryX=0.5;entryY=0;entryDx=0;entryDy=0;" edge="1" parent="WIyWlLk6GJQsqaUBKTNV-1" source="WIyWlLk6GJQsqaUBKTNV-11" target="rZJ9U5A9wIgJqq0RdlXc-7">
          <mxGeometry relative="1" as="geometry" />
        </mxCell>
        <mxCell id="WIyWlLk6GJQsqaUBKTNV-11" value="Select Quantity (Tickets) &amp;amp; (Ticket Type)" style="rounded=1;whiteSpace=wrap;html=1;fontSize=12;glass=0;strokeWidth=1;shadow=0;" parent="WIyWlLk6GJQsqaUBKTNV-1" vertex="1">
          <mxGeometry x="220" y="500" width="120" height="60" as="geometry" />
        </mxCell>
        <mxCell id="rZJ9U5A9wIgJqq0RdlXc-0" value="&lt;font color=&quot;#ff3333&quot;&gt;Student Advance Tickets&lt;/font&gt;" style="text;html=1;strokeColor=none;fillColor=none;align=center;verticalAlign=middle;whiteSpace=wrap;rounded=0;" vertex="1" parent="WIyWlLk6GJQsqaUBKTNV-1">
          <mxGeometry x="250" y="110" width="60" height="30" as="geometry" />
        </mxCell>
        <mxCell id="rZJ9U5A9wIgJqq0RdlXc-6" value="" style="group" vertex="1" connectable="0" parent="WIyWlLk6GJQsqaUBKTNV-1">
          <mxGeometry x="290" y="360" width="60" height="30" as="geometry" />
        </mxCell>
        <mxCell id="WIyWlLk6GJQsqaUBKTNV-4" value="" style="rounded=0;html=1;jettySize=auto;orthogonalLoop=1;fontSize=11;endArrow=block;endFill=0;endSize=8;strokeWidth=1;shadow=0;labelBackgroundColor=none;edgeStyle=orthogonalEdgeStyle;exitX=0.5;exitY=1;exitDx=0;exitDy=0;" parent="rZJ9U5A9wIgJqq0RdlXc-6" source="WIyWlLk6GJQsqaUBKTNV-6" target="WIyWlLk6GJQsqaUBKTNV-10" edge="1">
          <mxGeometry x="-0.0667" y="20" relative="1" as="geometry">
            <mxPoint as="offset" />
            <mxPoint y="100" as="sourcePoint" />
          </mxGeometry>
        </mxCell>
        <mxCell id="rZJ9U5A9wIgJqq0RdlXc-11" style="edgeStyle=orthogonalEdgeStyle;rounded=0;orthogonalLoop=1;jettySize=auto;html=1;exitX=0.5;exitY=1;exitDx=0;exitDy=0;entryX=0.5;entryY=0;entryDx=0;entryDy=0;fontColor=#FF3333;" edge="1" parent="WIyWlLk6GJQsqaUBKTNV-1" source="rZJ9U5A9wIgJqq0RdlXc-7" target="rZJ9U5A9wIgJqq0RdlXc-10">
          <mxGeometry relative="1" as="geometry" />
        </mxCell>
        <mxCell id="rZJ9U5A9wIgJqq0RdlXc-7" value="Total Cost Provided&amp;nbsp;" style="rhombus;whiteSpace=wrap;html=1;shadow=0;fontFamily=Helvetica;fontSize=12;align=center;strokeWidth=1;spacing=6;spacingTop=-4;" vertex="1" parent="WIyWlLk6GJQsqaUBKTNV-1">
          <mxGeometry x="230" y="600" width="100" height="80" as="geometry" />
        </mxCell>
        <mxCell id="rZJ9U5A9wIgJqq0RdlXc-4" value="select &amp;nbsp;showing" style="text;html=1;strokeColor=none;fillColor=none;align=center;verticalAlign=middle;whiteSpace=wrap;rounded=0;" vertex="1" parent="WIyWlLk6GJQsqaUBKTNV-1">
          <mxGeometry x="270" y="340" width="60" height="30" as="geometry" />
        </mxCell>
        <mxCell id="rZJ9U5A9wIgJqq0RdlXc-9" style="edgeStyle=orthogonalEdgeStyle;rounded=0;orthogonalLoop=1;jettySize=auto;html=1;entryX=0.5;entryY=0;entryDx=0;entryDy=0;" edge="1" parent="WIyWlLk6GJQsqaUBKTNV-1" source="rZJ9U5A9wIgJqq0RdlXc-10">
          <mxGeometry relative="1" as="geometry">
            <mxPoint x="280" y="810" as="targetPoint" />
          </mxGeometry>
        </mxCell>
        <mxCell id="rZJ9U5A9wIgJqq0RdlXc-10" value="Confirm Booking" style="rounded=1;whiteSpace=wrap;html=1;fontSize=12;glass=0;strokeWidth=1;shadow=0;" vertex="1" parent="WIyWlLk6GJQsqaUBKTNV-1">
          <mxGeometry x="220" y="710" width="120" height="60" as="geometry" />
        </mxCell>
        <mxCell id="rZJ9U5A9wIgJqq0RdlXc-12" value="Enough Seats" style="rhombus;whiteSpace=wrap;html=1;shadow=0;fontFamily=Helvetica;fontSize=12;align=center;strokeWidth=1;spacing=6;spacingTop=-4;" vertex="1" parent="WIyWlLk6GJQsqaUBKTNV-1">
          <mxGeometry x="230" y="810" width="100" height="80" as="geometry" />
        </mxCell>
        <mxCell id="rZJ9U5A9wIgJqq0RdlXc-13" style="edgeStyle=orthogonalEdgeStyle;rounded=0;orthogonalLoop=1;jettySize=auto;html=1;entryX=0.5;entryY=0;entryDx=0;entryDy=0;" edge="1" parent="WIyWlLk6GJQsqaUBKTNV-1">
          <mxGeometry relative="1" as="geometry">
            <mxPoint x="279.9" y="930" as="targetPoint" />
            <mxPoint x="279.9" y="890" as="sourcePoint" />
          </mxGeometry>
        </mxCell>
        <mxCell id="rZJ9U5A9wIgJqq0RdlXc-15" value="&lt;font color=&quot;#000000&quot;&gt;Yes&lt;/font&gt;" style="edgeLabel;html=1;align=center;verticalAlign=middle;resizable=0;points=[];fontColor=#FF3333;" vertex="1" connectable="0" parent="rZJ9U5A9wIgJqq0RdlXc-13">
          <mxGeometry x="0.7814" relative="1" as="geometry">
            <mxPoint y="-26" as="offset" />
          </mxGeometry>
        </mxCell>
        <mxCell id="rZJ9U5A9wIgJqq0RdlXc-14" value="No" style="edgeStyle=orthogonalEdgeStyle;rounded=0;orthogonalLoop=1;jettySize=auto;html=1;entryX=1;entryY=0.5;entryDx=0;entryDy=0;" edge="1" parent="WIyWlLk6GJQsqaUBKTNV-1" target="WIyWlLk6GJQsqaUBKTNV-3">
          <mxGeometry relative="1" as="geometry">
            <mxPoint x="380" y="850" as="targetPoint" />
            <mxPoint x="330" y="850" as="sourcePoint" />
            <Array as="points">
              <mxPoint x="510" y="850" />
              <mxPoint x="510" y="180" />
            </Array>
          </mxGeometry>
        </mxCell>
        <mxCell id="rZJ9U5A9wIgJqq0RdlXc-18" style="edgeStyle=orthogonalEdgeStyle;rounded=0;orthogonalLoop=1;jettySize=auto;html=1;entryX=0;entryY=0.5;entryDx=0;entryDy=0;fontColor=#000000;" edge="1" parent="WIyWlLk6GJQsqaUBKTNV-1" source="rZJ9U5A9wIgJqq0RdlXc-16" target="rZJ9U5A9wIgJqq0RdlXc-17">
          <mxGeometry relative="1" as="geometry" />
        </mxCell>
        <mxCell id="rZJ9U5A9wIgJqq0RdlXc-16" value="Complete" style="rounded=1;whiteSpace=wrap;html=1;fontSize=12;glass=0;strokeWidth=1;shadow=0;" vertex="1" parent="WIyWlLk6GJQsqaUBKTNV-1">
          <mxGeometry x="220" y="930" width="120" height="60" as="geometry" />
        </mxCell>
        <mxCell id="rZJ9U5A9wIgJqq0RdlXc-17" value="Taken to payment&lt;br&gt;&lt;font style=&quot;font-size: 10px&quot; color=&quot;#ff0d0d&quot;&gt;(use existing system)&lt;/font&gt;" style="rounded=1;whiteSpace=wrap;html=1;fontSize=12;glass=0;strokeWidth=1;shadow=0;" vertex="1" parent="WIyWlLk6GJQsqaUBKTNV-1">
          <mxGeometry x="440" y="930" width="120" height="60" as="geometry" />
        </mxCell>
        <mxCell id="rZJ9U5A9wIgJqq0RdlXc-19" value="Successful" style="rounded=0;html=1;jettySize=auto;orthogonalLoop=1;fontSize=11;endArrow=block;endFill=0;endSize=8;strokeWidth=1;shadow=0;labelBackgroundColor=none;edgeStyle=orthogonalEdgeStyle;entryX=0.5;entryY=0;entryDx=0;entryDy=0;" edge="1" parent="WIyWlLk6GJQsqaUBKTNV-1" source="rZJ9U5A9wIgJqq0RdlXc-20" target="rZJ9U5A9wIgJqq0RdlXc-44">
          <mxGeometry relative="1" as="geometry">
            <mxPoint x="1060" y="283" as="targetPoint" />
          </mxGeometry>
        </mxCell>
        <mxCell id="rZJ9U5A9wIgJqq0RdlXc-20" value="Enter club number and password" style="rounded=1;whiteSpace=wrap;html=1;fontSize=12;glass=0;strokeWidth=1;shadow=0;" vertex="1" parent="WIyWlLk6GJQsqaUBKTNV-1">
          <mxGeometry x="1000" y="183" width="120" height="40" as="geometry" />
        </mxCell>
        <mxCell id="rZJ9U5A9wIgJqq0RdlXc-26" value="&lt;font color=&quot;#ff3333&quot;&gt;Club Rep Ticket Purchase&lt;/font&gt;" style="text;html=1;strokeColor=none;fillColor=none;align=center;verticalAlign=middle;whiteSpace=wrap;rounded=0;" vertex="1" parent="WIyWlLk6GJQsqaUBKTNV-1">
          <mxGeometry x="1000" y="130" width="60" height="30" as="geometry" />
        </mxCell>
        <mxCell id="rZJ9U5A9wIgJqq0RdlXc-41" style="edgeStyle=orthogonalEdgeStyle;rounded=0;orthogonalLoop=1;jettySize=auto;html=1;fontSize=10;fontColor=#FF0D0D;exitX=0.5;exitY=1;exitDx=0;exitDy=0;" edge="1" parent="WIyWlLk6GJQsqaUBKTNV-1" source="rZJ9U5A9wIgJqq0RdlXc-20">
          <mxGeometry relative="1" as="geometry">
            <mxPoint x="1060" y="220" as="sourcePoint" />
            <mxPoint x="1120" y="200" as="targetPoint" />
            <Array as="points">
              <mxPoint x="1180" y="223" />
              <mxPoint x="1180" y="160" />
              <mxPoint x="1120" y="160" />
            </Array>
          </mxGeometry>
        </mxCell>
        <mxCell id="rZJ9U5A9wIgJqq0RdlXc-42" value="&lt;font color=&quot;#000000&quot; style=&quot;font-size: 12px&quot;&gt;Invalid -&amp;gt; revalidate&lt;/font&gt;" style="edgeLabel;html=1;align=center;verticalAlign=middle;resizable=0;points=[];fontSize=10;fontColor=#FF0D0D;" vertex="1" connectable="0" parent="rZJ9U5A9wIgJqq0RdlXc-41">
          <mxGeometry x="0.144" y="-3" relative="1" as="geometry">
            <mxPoint as="offset" />
          </mxGeometry>
        </mxCell>
        <mxCell id="rZJ9U5A9wIgJqq0RdlXc-43" value="" style="rounded=0;html=1;jettySize=auto;orthogonalLoop=1;fontSize=11;endArrow=block;endFill=0;endSize=8;strokeWidth=1;shadow=0;labelBackgroundColor=none;edgeStyle=orthogonalEdgeStyle;" edge="1" parent="WIyWlLk6GJQsqaUBKTNV-1" source="rZJ9U5A9wIgJqq0RdlXc-44" target="rZJ9U5A9wIgJqq0RdlXc-45">
          <mxGeometry relative="1" as="geometry" />
        </mxCell>
        <mxCell id="rZJ9U5A9wIgJqq0RdlXc-44" value="Select &lt;font color=&quot;#ff3333&quot;&gt;(nominates)&lt;/font&gt;&lt;br&gt;&amp;nbsp;Date&amp;nbsp;" style="rounded=1;whiteSpace=wrap;html=1;fontSize=12;glass=0;strokeWidth=1;shadow=0;" vertex="1" parent="WIyWlLk6GJQsqaUBKTNV-1">
          <mxGeometry x="1000" y="288" width="120" height="40" as="geometry" />
        </mxCell>
        <mxCell id="rZJ9U5A9wIgJqq0RdlXc-45" value="list of available showings for data and time" style="rhombus;whiteSpace=wrap;html=1;shadow=0;fontFamily=Helvetica;fontSize=12;align=center;strokeWidth=1;spacing=6;spacingTop=-4;" vertex="1" parent="WIyWlLk6GJQsqaUBKTNV-1">
          <mxGeometry x="1015" y="358" width="90" height="100" as="geometry" />
        </mxCell>
        <mxCell id="rZJ9U5A9wIgJqq0RdlXc-46" value="" style="rounded=0;html=1;jettySize=auto;orthogonalLoop=1;fontSize=11;endArrow=block;endFill=0;endSize=8;strokeWidth=1;shadow=0;labelBackgroundColor=none;edgeStyle=orthogonalEdgeStyle;" edge="1" parent="WIyWlLk6GJQsqaUBKTNV-1" source="rZJ9U5A9wIgJqq0RdlXc-47" target="rZJ9U5A9wIgJqq0RdlXc-49">
          <mxGeometry x="0.3333" y="20" relative="1" as="geometry">
            <mxPoint as="offset" />
          </mxGeometry>
        </mxCell>
        <mxCell id="rZJ9U5A9wIgJqq0RdlXc-47" value="Showing Details&amp;nbsp;Provided" style="rhombus;whiteSpace=wrap;html=1;shadow=0;fontFamily=Helvetica;fontSize=12;align=center;strokeWidth=1;spacing=6;spacingTop=-4;" vertex="1" parent="WIyWlLk6GJQsqaUBKTNV-1">
          <mxGeometry x="1010" y="518" width="100" height="80" as="geometry" />
        </mxCell>
        <mxCell id="rZJ9U5A9wIgJqq0RdlXc-48" style="edgeStyle=orthogonalEdgeStyle;rounded=0;orthogonalLoop=1;jettySize=auto;html=1;startArrow=none;" edge="1" parent="WIyWlLk6GJQsqaUBKTNV-1" source="rZJ9U5A9wIgJqq0RdlXc-68">
          <mxGeometry relative="1" as="geometry">
            <mxPoint x="1060" y="840" as="targetPoint" />
            <Array as="points">
              <mxPoint x="1060" y="830" />
              <mxPoint x="1060" y="830" />
            </Array>
          </mxGeometry>
        </mxCell>
        <mxCell id="rZJ9U5A9wIgJqq0RdlXc-49" value="Select Quantity (Tickets)&amp;nbsp;" style="rounded=1;whiteSpace=wrap;html=1;fontSize=12;glass=0;strokeWidth=1;shadow=0;" vertex="1" parent="WIyWlLk6GJQsqaUBKTNV-1">
          <mxGeometry x="1000" y="628" width="120" height="60" as="geometry" />
        </mxCell>
        <mxCell id="rZJ9U5A9wIgJqq0RdlXc-50" value="" style="group" vertex="1" connectable="0" parent="WIyWlLk6GJQsqaUBKTNV-1">
          <mxGeometry x="1070" y="488" width="60" height="30" as="geometry" />
        </mxCell>
        <mxCell id="rZJ9U5A9wIgJqq0RdlXc-51" value="" style="rounded=0;html=1;jettySize=auto;orthogonalLoop=1;fontSize=11;endArrow=block;endFill=0;endSize=8;strokeWidth=1;shadow=0;labelBackgroundColor=none;edgeStyle=orthogonalEdgeStyle;exitX=0.5;exitY=1;exitDx=0;exitDy=0;" edge="1" parent="rZJ9U5A9wIgJqq0RdlXc-50" source="rZJ9U5A9wIgJqq0RdlXc-45" target="rZJ9U5A9wIgJqq0RdlXc-47">
          <mxGeometry x="-0.0667" y="20" relative="1" as="geometry">
            <mxPoint as="offset" />
            <mxPoint y="100" as="sourcePoint" />
          </mxGeometry>
        </mxCell>
        <mxCell id="rZJ9U5A9wIgJqq0RdlXc-52" style="edgeStyle=orthogonalEdgeStyle;rounded=0;orthogonalLoop=1;jettySize=auto;html=1;exitX=0.5;exitY=1;exitDx=0;exitDy=0;entryX=0.5;entryY=0;entryDx=0;entryDy=0;fontColor=#FF3333;" edge="1" parent="WIyWlLk6GJQsqaUBKTNV-1" source="rZJ9U5A9wIgJqq0RdlXc-53" target="rZJ9U5A9wIgJqq0RdlXc-56">
          <mxGeometry relative="1" as="geometry" />
        </mxCell>
        <mxCell id="rZJ9U5A9wIgJqq0RdlXc-53" value="Total Cost Provided&amp;nbsp;" style="rhombus;whiteSpace=wrap;html=1;shadow=0;fontFamily=Helvetica;fontSize=12;align=center;strokeWidth=1;spacing=6;spacingTop=-4;" vertex="1" parent="WIyWlLk6GJQsqaUBKTNV-1">
          <mxGeometry x="1010" y="930" width="100" height="80" as="geometry" />
        </mxCell>
        <mxCell id="rZJ9U5A9wIgJqq0RdlXc-54" value="select &amp;nbsp;showing" style="text;html=1;strokeColor=none;fillColor=none;align=center;verticalAlign=middle;whiteSpace=wrap;rounded=0;" vertex="1" parent="WIyWlLk6GJQsqaUBKTNV-1">
          <mxGeometry x="1050" y="468" width="60" height="30" as="geometry" />
        </mxCell>
        <mxCell id="rZJ9U5A9wIgJqq0RdlXc-55" style="edgeStyle=orthogonalEdgeStyle;rounded=0;orthogonalLoop=1;jettySize=auto;html=1;entryX=0.5;entryY=0;entryDx=0;entryDy=0;" edge="1" parent="WIyWlLk6GJQsqaUBKTNV-1" source="rZJ9U5A9wIgJqq0RdlXc-56">
          <mxGeometry relative="1" as="geometry">
            <mxPoint x="1060" y="1130" as="targetPoint" />
          </mxGeometry>
        </mxCell>
        <mxCell id="rZJ9U5A9wIgJqq0RdlXc-56" value="Confirm Booking" style="rounded=1;whiteSpace=wrap;html=1;fontSize=12;glass=0;strokeWidth=1;shadow=0;" vertex="1" parent="WIyWlLk6GJQsqaUBKTNV-1">
          <mxGeometry x="1000" y="1030" width="120" height="60" as="geometry" />
        </mxCell>
        <mxCell id="rZJ9U5A9wIgJqq0RdlXc-57" value="Enough Seats" style="rhombus;whiteSpace=wrap;html=1;shadow=0;fontFamily=Helvetica;fontSize=12;align=center;strokeWidth=1;spacing=6;spacingTop=-4;" vertex="1" parent="WIyWlLk6GJQsqaUBKTNV-1">
          <mxGeometry x="1010" y="1130" width="100" height="80" as="geometry" />
        </mxCell>
        <mxCell id="rZJ9U5A9wIgJqq0RdlXc-58" style="edgeStyle=orthogonalEdgeStyle;rounded=0;orthogonalLoop=1;jettySize=auto;html=1;entryX=0.5;entryY=0;entryDx=0;entryDy=0;" edge="1" parent="WIyWlLk6GJQsqaUBKTNV-1">
          <mxGeometry relative="1" as="geometry">
            <mxPoint x="1059.9" y="1250" as="targetPoint" />
            <mxPoint x="1059.9" y="1210" as="sourcePoint" />
          </mxGeometry>
        </mxCell>
        <mxCell id="rZJ9U5A9wIgJqq0RdlXc-59" value="&lt;font color=&quot;#000000&quot;&gt;Yes&lt;/font&gt;" style="edgeLabel;html=1;align=center;verticalAlign=middle;resizable=0;points=[];fontColor=#FF3333;" vertex="1" connectable="0" parent="rZJ9U5A9wIgJqq0RdlXc-58">
          <mxGeometry x="0.7814" relative="1" as="geometry">
            <mxPoint y="-26" as="offset" />
          </mxGeometry>
        </mxCell>
        <mxCell id="rZJ9U5A9wIgJqq0RdlXc-60" value="No" style="edgeStyle=orthogonalEdgeStyle;rounded=0;orthogonalLoop=1;jettySize=auto;html=1;entryX=1;entryY=0.5;entryDx=0;entryDy=0;exitX=1;exitY=0.5;exitDx=0;exitDy=0;" edge="1" parent="WIyWlLk6GJQsqaUBKTNV-1" target="rZJ9U5A9wIgJqq0RdlXc-44" source="rZJ9U5A9wIgJqq0RdlXc-57">
          <mxGeometry relative="1" as="geometry">
            <mxPoint x="1160" y="978" as="targetPoint" />
            <mxPoint x="1110" y="978" as="sourcePoint" />
            <Array as="points">
              <mxPoint x="1290" y="1170" />
              <mxPoint x="1290" y="308" />
            </Array>
          </mxGeometry>
        </mxCell>
        <mxCell id="rZJ9U5A9wIgJqq0RdlXc-61" style="edgeStyle=orthogonalEdgeStyle;rounded=0;orthogonalLoop=1;jettySize=auto;html=1;entryX=0;entryY=0.5;entryDx=0;entryDy=0;fontColor=#000000;" edge="1" parent="WIyWlLk6GJQsqaUBKTNV-1" source="rZJ9U5A9wIgJqq0RdlXc-62" target="rZJ9U5A9wIgJqq0RdlXc-63">
          <mxGeometry relative="1" as="geometry" />
        </mxCell>
        <mxCell id="rZJ9U5A9wIgJqq0RdlXc-73" value="&lt;font color=&quot;#000000&quot; style=&quot;font-size: 12px&quot;&gt;Pay Now&lt;/font&gt;" style="edgeLabel;html=1;align=center;verticalAlign=middle;resizable=0;points=[];fontSize=10;fontColor=#FF3333;" vertex="1" connectable="0" parent="rZJ9U5A9wIgJqq0RdlXc-61">
          <mxGeometry x="-0.234" y="4" relative="1" as="geometry">
            <mxPoint as="offset" />
          </mxGeometry>
        </mxCell>
        <mxCell id="rZJ9U5A9wIgJqq0RdlXc-62" value="Complete" style="rounded=1;whiteSpace=wrap;html=1;fontSize=12;glass=0;strokeWidth=1;shadow=0;" vertex="1" parent="WIyWlLk6GJQsqaUBKTNV-1">
          <mxGeometry x="1000" y="1250" width="120" height="60" as="geometry" />
        </mxCell>
        <mxCell id="rZJ9U5A9wIgJqq0RdlXc-63" value="Debit from club account" style="rounded=1;whiteSpace=wrap;html=1;fontSize=12;glass=0;strokeWidth=1;shadow=0;" vertex="1" parent="WIyWlLk6GJQsqaUBKTNV-1">
          <mxGeometry x="1300" y="1250" width="120" height="60" as="geometry" />
        </mxCell>
        <mxCell id="rZJ9U5A9wIgJqq0RdlXc-66" style="edgeStyle=orthogonalEdgeStyle;rounded=0;orthogonalLoop=1;jettySize=auto;html=1;entryX=1;entryY=0.5;entryDx=0;entryDy=0;fontSize=12;fontColor=#FF3333;" edge="1" parent="WIyWlLk6GJQsqaUBKTNV-1" source="rZJ9U5A9wIgJqq0RdlXc-49" target="rZJ9U5A9wIgJqq0RdlXc-49">
          <mxGeometry relative="1" as="geometry">
            <Array as="points">
              <mxPoint x="1060" y="720" />
              <mxPoint x="1140" y="720" />
              <mxPoint x="1140" y="658" />
            </Array>
          </mxGeometry>
        </mxCell>
        <mxCell id="rZJ9U5A9wIgJqq0RdlXc-67" value="&lt;font style=&quot;font-size: 10px&quot;&gt;Ask again if &amp;lt; 10&lt;/font&gt;" style="edgeLabel;html=1;align=center;verticalAlign=middle;resizable=0;points=[];fontSize=12;fontColor=#FF3333;" vertex="1" connectable="0" parent="rZJ9U5A9wIgJqq0RdlXc-66">
          <mxGeometry x="0.323" relative="1" as="geometry">
            <mxPoint as="offset" />
          </mxGeometry>
        </mxCell>
        <mxCell id="rZJ9U5A9wIgJqq0RdlXc-72" style="edgeStyle=orthogonalEdgeStyle;rounded=0;orthogonalLoop=1;jettySize=auto;html=1;entryX=0.5;entryY=0;entryDx=0;entryDy=0;fontSize=10;fontColor=#FF3333;" edge="1" parent="WIyWlLk6GJQsqaUBKTNV-1" source="rZJ9U5A9wIgJqq0RdlXc-68" target="rZJ9U5A9wIgJqq0RdlXc-53">
          <mxGeometry relative="1" as="geometry" />
        </mxCell>
        <mxCell id="rZJ9U5A9wIgJqq0RdlXc-68" value="Apply Discount" style="whiteSpace=wrap;html=1;shadow=0;strokeWidth=1;spacing=6;spacingTop=-4;" vertex="1" parent="WIyWlLk6GJQsqaUBKTNV-1">
          <mxGeometry x="1000" y="840" width="120" height="60" as="geometry" />
        </mxCell>
        <mxCell id="rZJ9U5A9wIgJqq0RdlXc-70" value="" style="edgeStyle=orthogonalEdgeStyle;rounded=0;orthogonalLoop=1;jettySize=auto;html=1;entryX=0.5;entryY=0;entryDx=0;entryDy=0;endArrow=none;" edge="1" parent="WIyWlLk6GJQsqaUBKTNV-1" source="rZJ9U5A9wIgJqq0RdlXc-49" target="rZJ9U5A9wIgJqq0RdlXc-68">
          <mxGeometry relative="1" as="geometry">
            <mxPoint x="1060.0000000000002" y="688" as="sourcePoint" />
            <mxPoint x="1060.0000000000002" y="820" as="targetPoint" />
          </mxGeometry>
        </mxCell>
        <mxCell id="rZJ9U5A9wIgJqq0RdlXc-71" value="&lt;font style=&quot;font-size: 10px&quot;&gt;number of tickets &amp;gt;= 10&lt;/font&gt;" style="edgeLabel;html=1;align=center;verticalAlign=middle;resizable=0;points=[];fontSize=12;fontColor=#FF3333;" vertex="1" connectable="0" parent="rZJ9U5A9wIgJqq0RdlXc-70">
          <mxGeometry x="-0.3241" relative="1" as="geometry">
            <mxPoint y="21" as="offset" />
          </mxGeometry>
        </mxCell>
        <mxCell id="rZJ9U5A9wIgJqq0RdlXc-74" style="edgeStyle=orthogonalEdgeStyle;rounded=0;orthogonalLoop=1;jettySize=auto;html=1;entryX=0.5;entryY=0;entryDx=0;entryDy=0;fontColor=#000000;" edge="1" parent="WIyWlLk6GJQsqaUBKTNV-1" target="rZJ9U5A9wIgJqq0RdlXc-76">
          <mxGeometry relative="1" as="geometry">
            <mxPoint x="1060" y="1310" as="sourcePoint" />
          </mxGeometry>
        </mxCell>
        <mxCell id="rZJ9U5A9wIgJqq0RdlXc-75" value="&lt;font color=&quot;#000000&quot; style=&quot;font-size: 12px&quot;&gt;Pay Later&lt;/font&gt;" style="edgeLabel;html=1;align=center;verticalAlign=middle;resizable=0;points=[];fontSize=10;fontColor=#FF3333;" vertex="1" connectable="0" parent="rZJ9U5A9wIgJqq0RdlXc-74">
          <mxGeometry x="-0.234" y="4" relative="1" as="geometry">
            <mxPoint as="offset" />
          </mxGeometry>
        </mxCell>
        <mxCell id="rZJ9U5A9wIgJqq0RdlXc-76" value="Add Credit to be payed at later date in month" style="rounded=1;whiteSpace=wrap;html=1;fontSize=12;glass=0;strokeWidth=1;shadow=0;" vertex="1" parent="WIyWlLk6GJQsqaUBKTNV-1">
          <mxGeometry x="1000" y="1430" width="120" height="60" as="geometry" />
        </mxCell>
      </root>
    </mxGraphModel>
  </diagram>
</mxfile>
